<svg xmlns="http://www.w3.org/2000/svg" viewBox="0 0 1600 900" role="img" aria-labelledby="title desc">
  <title id="title">Smart gate checkpoint</title>
  <desc id="desc">A smart security entrance gate with gate posts, boom barrier, guard booth, scanner kiosk, sliding fence panels, and vehicle lane.</desc>
  <defs>
    <linearGradient id="bg" x1="0" x2="1" y1="0" y2="1">
      <stop offset="0" stop-color="#fff"/>
      <stop offset=".62" stop-color="#f4f3fb"/>
      <stop offset="1" stop-color="#e8e9f2"/>
    </linearGradient>
    <linearGradient id="road" x1="0" x2="1" y1="0" y2="1">
      <stop offset="0" stop-color="#eef0f6"/>
      <stop offset="1" stop-color="#c8cedb"/>
    </linearGradient>
    <linearGradient id="steel" x1="0" x2="1">
      <stop offset="0" stop-color="#f8fafc"/>
      <stop offset=".2" stop-color="#9ba4b6"/>
      <stop offset=".5" stop-color="#eef2f7"/>
      <stop offset=".82" stop-color="#4f596b"/>
      <stop offset="1" stop-color="#151a27"/>
    </linearGradient>
    <linearGradient id="dark" x1="0" x2="1" y1="0" y2="1">
      <stop offset="0" stop-color="#303647"/>
      <stop offset=".55" stop-color="#121827"/>
      <stop offset="1" stop-color="#070b14"/>
    </linearGradient>
    <linearGradient id="blue" x1="0" x2="1">
      <stop offset="0" stop-color="#55f2ff"/>
      <stop offset=".52" stop-color="#287cff"/>
      <stop offset="1" stop-color="#6358e8"/>
    </linearGradient>
  </defs>

  <rect width="1600" height="900" fill="none"/>
  <path d="M420 72h1140c44 0 80 36 80 80v438H420z" fill="url(#bg)"/>
  <path d="M420 590h1220v310H420z" fill="url(#road)"/>
  <path d="M820 590l-130 310M1080 590l30 310M1320 590l190 310" stroke="#fff" stroke-width="6" opacity=".72"/>
  <path d="M690 704h790" stroke="#939cb1" stroke-width="3" opacity=".42"/>

  <g opacity=".72">
    <rect x="542" y="292" width="250" height="300" rx="10" fill="#fff"/>
    <rect x="564" y="328" width="206" height="158" rx="8" fill="#1a2131"/>
    <path d="M588 366h72M588 404h116M588 442h84" stroke="#63e6ff" stroke-width="9" stroke-linecap="round"/>
    <path d="M694 456v-64M728 456v-98" stroke="#6358e8" stroke-width="12" stroke-linecap="round"/>
    <rect x="542" y="514" width="250" height="78" fill="#e9edf5"/>
    <path d="M542 592h250" stroke="#aab2c3" stroke-width="4"/>
  </g>

  <g>
    <path d="M860 220h92c24 0 44 20 44 44v424H816V264c0-24 20-44 44-44z" fill="url(#dark)"/>
    <rect x="842" y="260" width="128" height="388" rx="8" fill="url(#steel)"/>
    <rect x="866" y="292" width="80" height="92" rx="10" fill="#101827"/>
    <path d="M884 326h44M884 354h28" stroke="url(#blue)" stroke-width="8" stroke-linecap="round"/>
    <path d="M846 648h120" stroke="url(#blue)" stroke-width="11" stroke-linecap="round"/>
    <circle cx="906" cy="430" r="19" fill="#101827" stroke="url(#blue)" stroke-width="5"/>
  </g>

  <g>
    <path d="M1338 220h92c24 0 44 20 44 44v424h-180V264c0-24 20-44 44-44z" fill="url(#dark)"/>
    <rect x="1320" y="260" width="128" height="388" rx="8" fill="url(#steel)"/>
    <rect x="1344" y="292" width="80" height="92" rx="10" fill="#101827"/>
    <path d="M1362 326h44M1362 354h28" stroke="url(#blue)" stroke-width="8" stroke-linecap="round"/>
    <path d="M1324 648h120" stroke="url(#blue)" stroke-width="11" stroke-linecap="round"/>
    <circle cx="1384" cy="430" r="19" fill="#101827" stroke="url(#blue)" stroke-width="5"/>
  </g>

  <g>
    <rect x="936" y="478" width="442" height="84" rx="12" fill="url(#steel)"/>
    <rect x="966" y="500" width="382" height="40" rx="6" fill="#111827"/>
    <path d="M994 520h326" stroke="url(#blue)" stroke-width="9" stroke-linecap="round"/>
    <rect x="978" y="562" width="148" height="112" fill="#dff7ff" fill-opacity=".34" stroke="#79d7ff" stroke-width="4"/>
    <rect x="1162" y="562" width="148" height="112" fill="#dff7ff" fill-opacity=".34" stroke="#79d7ff" stroke-width="4"/>
    <path d="M1052 572v92M1236 572v92" stroke="#fff" stroke-width="3" opacity=".7"/>
  </g>

  <g>
    <rect x="916" y="394" width="492" height="46" rx="23" fill="#fff"/>
    <path d="M932 400h460v34H932z" fill="#f6f7fb"/>
    <path d="M964 402h78l-44 34h-78zM1118 402h78l-44 34h-78zM1272 402h78l-44 34h-78z" fill="#e83c4f"/>
    <circle cx="906" cy="417" r="46" fill="url(#dark)"/>
    <circle cx="906" cy="417" r="19" fill="url(#blue)"/>
  </g>

  <g>
    <rect x="760" y="502" width="70" height="170" rx="16" fill="url(#dark)"/>
    <rect x="774" y="522" width="42" height="58" rx="8" fill="#101827"/>
    <path d="M786 548h18" stroke="url(#blue)" stroke-width="7" stroke-linecap="round"/>
    <path d="M770 610h50" stroke="url(#blue)" stroke-width="8" stroke-linecap="round"/>
  </g>

  <g>
    <rect x="1460" y="468" width="74" height="196" rx="18" fill="url(#dark)"/>
    <rect x="1474" y="492" width="46" height="70" rx="9" fill="#101827"/>
    <path d="M1484 522h26M1484 544h18" stroke="#63e6ff" stroke-width="6" stroke-linecap="round"/>
    <path d="M1470 604h54" stroke="url(#blue)" stroke-width="9" stroke-linecap="round"/>
  </g>

  <path d="M782 690h760l-72 86H710z" fill="#111827" opacity=".08"/>
  <path d="M824 712h642" stroke="#287cff" stroke-width="4" opacity=".2"/>
</svg>
